<svg xmlns="http://www.w3.org/2000/svg" viewBox="0 0 85.58 94.14"><defs><style>.cls-1{fill:#66f;stroke-width:2px;stroke:#fff;stroke-miterlimit:10}</style></defs><g id="Layer_2" data-name="Layer 2"><g id="Layer_1-2" data-name="Layer 1"><path class="cls-1" d="M46.24 6.75a5.74 5.74 0 0 1-5.75 5.75 6 6 0 0 1-5.26-3.42 5 5 0 0 1-.49-2.33C34.84 4.3 36.93 1 40.49 1a5.74 5.74 0 0 1 5.75 5.75Z"/><path class="cls-1" d="M35.74 8a27.25 27.25 0 0 0-13 8c-3.39 3.86-4.64 8.29-7 17-1.58 5.84-4.78 17.64-2 19 1.45.71 3.27 1.42 5 0 1.18-1 .64-5.25 1-5s0-1.12 0-1-.58-1.35 0-2c.41-.45 1.64.87 2 2 .61 1.9-.83 2.56 0 4 1 1.73 5.48 1.93 7 0 1.14-1.44.35-3.72 0-5-2.5-9.18 2.62-21.74 6-22 0 0 1.23-.09 8 12l6 5c.74.61 1.52 1.25 2 1 .83-.43.19-3.2 0-4-2-8.46-9.33-11.81-10-19a12.4 12.4 0 0 1 1-6"/><path d="M4.35 59.67C8 66.81 8.12 70.16 9.7 73.74 13.9 83.22 25.54 88 29 89.39c18.83 7.68 36.32-.5 39.13-1.87 12.4-6.07 15.71-15.08 15.75-15.86v-.92c.1-1.34.25-1.6.09-1.84-.47-.73-2.9-.17-3-.14-4.69 1.13-12.43 7.78-13.41 8.59-9.92 8.24-31.75 4-33-.61-.66-2.42 3.9-6.42 8.34-7 3.25-.41 4.28 1.31 7.94 1.3 6 0 12-4.65 11.33-6.85-.67-2.42-9.37-2.36-10.9-2.35-5.75 0-6 1.36-10.07 1.37-9.06 0-10.95-6.61-19.73-6.44-4.92.09-5.73 2.21-10.07 1.37-5.7-1.14-8.86-5.69-9.75-5.05-.65.5 1.13 3.49 2.7 6.58Z" style="fill:#c3f;stroke-width:3px;stroke:#fff;stroke-miterlimit:10"/><path class="cls-1" d="M60.7 20.15a5.51 5.51 0 0 1-10.49 1.58 4.91 4.91 0 0 1-.47-2.23c.1-2.34 2.1-5.5 5.5-5.5a5.5 5.5 0 0 1 5.46 6.15Z"/><rect x="57.65" y="13.46" width="5.65" height="3.65" rx="1.5" transform="rotate(-132.88 60.477 15.284)" style="fill:#fff"/><path class="cls-1" d="M53.48 24.79a12.5 12.5 0 0 1-1.74 8.07c-.62 1-.88.77-2.9 3.09s-3 3.76-3.32 5.62c-.17.91-.32 1.68.07 2 .92.74 4.54-1.26 6.87-4.23 3-3.85 2.75-7.89 4.73-8.16a2.74 2.74 0 0 1 2 .93c1.12.93 2.35 2.57 3.36 10.89.53 4.36.79 6.59.3 9L62 56c-.51.37-1.06.83-1 1 .17.36 2-.7 3-.1.32.19 1.39 1 .27 8-.82 5.09-1.78 7-.74 8a3.38 3.38 0 0 0 4-.13c3.41-2.81-1.3-13 1.47-16.06.27-.3 1.12-1.25 2-1.07a1.79 1.79 0 0 1 1 1c1.95 3.55 1.29 9 1.29 9-.13 1.14-.28 1.69.07 2 .8.71 3.71-.24 4.93-2.16 2.32-3.65-2-9.9-.36-11 .63-.41 1.45.37 2-.06 1.08-.86-.9-4.92-2.26-7.93-4.59-10.15-3.14-10.66-6.53-15.8-4-6-7.29-7.37-8.26-7.73a13.52 13.52 0 0 0-5-.83"/></g></g></svg>