<svg xmlns="http://www.w3.org/2000/svg" viewBox="0 0 51.74 56.59"><defs><style>.cls-1{fill:#66f;stroke-width:2px;}.cls-1,.cls-2{stroke:#fff;stroke-miterlimit:10;}.cls-2{fill:#c3f;stroke-width:3px;}.cls-3{fill:#fff;}</style></defs><title>Asset 1</title><g id="Layer_2" data-name="Layer 2"><g id="Layer_1-2" data-name="Layer 1"><path class="cls-1" d="M27.91,4.39a3.4,3.4,0,0,1-3.4,3.4,3.51,3.51,0,0,1-3.1-2,2.91,2.91,0,0,1-.29-1.38A3.56,3.56,0,0,1,24.51,1,3.4,3.4,0,0,1,27.91,4.39Z"/><path class="cls-1" d="M21.71,5.13A16.1,16.1,0,0,0,14,9.85c-2,2.28-2.74,4.9-4.13,10C9,23.34,7.08,30.3,8.72,31.1a2.55,2.55,0,0,0,3,0c.69-.57.37-3.1.59-3s0-.66,0-.59-.35-.8,0-1.18,1,.51,1.18,1.18c.36,1.12-.5,1.51,0,2.36.59,1,3.23,1.14,4.13,0,.67-.85.2-2.19,0-3-1.48-5.42,1.54-12.83,3.54-13,0,0,.72-.06,4.72,7.08L29.38,24c.44.36.9.74,1.18.59.49-.25.11-1.89,0-2.36-1.16-5-5.5-7-5.9-11.22a7.43,7.43,0,0,1,.59-3.54"/><path class="cls-2" d="M3.18,35.63c2.16,4.22,2.23,6.19,3.16,8.31,2.48,5.59,9.35,8.39,11.39,9.23,11.11,4.54,21.44-.29,23.1-1.1,7.32-3.59,9.27-8.9,9.3-9.36,0,0,0-.24,0-.55.05-.79.14-.94.05-1.08-.27-.44-1.71-.1-1.77-.09-2.77.67-7.33,4.59-7.92,5.08-5.85,4.86-18.73,2.37-19.48-.36-.39-1.43,2.3-3.79,4.92-4.13,1.92-.24,2.53.77,4.69.76,3.55,0,7-2.74,6.69-4s-5.53-1.39-6.44-1.38c-3.39,0-3.55.8-5.94.81-5.35,0-6.46-3.91-11.64-3.81-2.91.06-3.39,1.31-5.95.81-3.38-.65-5.25-3.36-5.77-3S2.25,33.81,3.18,35.63Z"/><path class="cls-1" d="M36.44,12.3a3.25,3.25,0,0,1-6.19.93A3,3,0,0,1,30,11.92a3.42,3.42,0,0,1,3.25-3.25A3.24,3.24,0,0,1,36.44,12.3Z"/><rect class="cls-3" x="34.64" y="8.35" width="3.34" height="2.15" rx="1.08" transform="translate(54.11 42.45) rotate(-132.88)"/><path class="cls-1" d="M32.18,15a7.3,7.3,0,0,1-1,4.76c-.36.58-.51.46-1.71,1.83a7.08,7.08,0,0,0-2,3.31c-.11.55-.2,1,0,1.18.55.44,2.68-.74,4.06-2.49,1.77-2.27,1.62-4.66,2.79-4.82a1.66,1.66,0,0,1,1.2.55c.66.55,1.38,1.52,2,6.43a16.15,16.15,0,0,1,.18,5.31s0,.06-.51,2.38c-.3.22-.63.49-.57.61s1.15-.42,1.77-.06c.18.11.82.6.15,4.72-.48,3-1,4.16-.43,4.74a2,2,0,0,0,2.36-.08c2-1.65-.77-7.66.87-9.47.16-.18.66-.74,1.16-.63.3.06.49.36.61.57a10.4,10.4,0,0,1,.76,5.29c-.08.67-.17,1,0,1.18.47.41,2.19-.14,2.91-1.28,1.37-2.15-1.19-5.84-.21-6.49.37-.25.85.22,1.18,0,.63-.5-.54-2.9-1.34-4.68-2.7-6-1.85-6.29-3.85-9.32C40.29,15,38.32,14.19,37.75,14a8.1,8.1,0,0,0-3-.5"/></g></g></svg>