<svg xmlns="http://www.w3.org/2000/svg" viewBox="0 0 38 40.5"><defs><style>.cls-1{fill:#cfd8dc;}.cls-2{fill:#c3f;}.cls-3{fill:#5146bc;}.cls-4{fill:#b0bec5;}.cls-5{fill:#a697b7;}</style></defs><title>UpcomingEvents</title><g id="Layer_2" data-name="Layer 2"><g id="Layer_1-2" data-name="Layer 1"><path class="cls-1" d="M0,36.5v-24H38v24a4,4,0,0,1-4,4H4A4,4,0,0,1,0,36.5Z"/><path class="cls-2" d="M38,8.5v6H0v-6a4,4,0,0,1,4-4H34A4,4,0,0,1,38,8.5Z"/><circle class="cls-3" cx="32.68" cy="8.1" r="3"/><circle class="cls-3" cx="5.36" cy="8.1" r="3"/><path class="cls-4" d="M32.68,0a2,2,0,0,0-2,2V7a2,2,0,0,0,4,0V2A2,2,0,0,0,32.68,0Z"/><path class="cls-4" d="M5.32,0a2,2,0,0,0-2,2V7a2,2,0,0,0,4,0V2A2,2,0,0,0,5.32,0Z"/><rect class="cls-5" x="7.82" y="24.2" width="22.36" height="12.6" rx="2.82"/><rect class="cls-5" x="10.44" y="16.53" width="17.1" height="5.64" rx="2.82"/></g></g></svg>